<?xml version="1.0" encoding="UTF-8" standalone="no"?>
<!DOCTYPE svg PUBLIC "-//W3C//DTD SVG 1.1//EN"
 "http://www.w3.org/Graphics/SVG/1.1/DTD/svg11.dtd">
<!-- Generated by graphviz version 2.38.0 (20140413.2041)
 -->
<!-- Title: %3 Pages: 1 -->
<svg width="538pt" height="116pt"
 viewBox="0.00 0.00 537.50 116.00" xmlns="http://www.w3.org/2000/svg" xmlns:xlink="http://www.w3.org/1999/xlink">
<g id="graph0" class="graph" transform="scale(1 1) rotate(0) translate(4 112)">
<title>%3</title>
<polygon fill="white" stroke="none" points="-4,4 -4,-112 533.5,-112 533.5,4 -4,4"/>
<!-- algebra -->
<g id="node1" class="node"><title>algebra</title>
<polygon fill="none" stroke="black" points="351.5,-108 194.5,-108 194.5,-72 351.5,-72 351.5,-108"/>
<text text-anchor="middle" x="273" y="-86.3" font-family="mono" font-size="14.00">algebra.Endpoints</text>
</g>
<!-- json -->
<g id="node2" class="node"><title>json</title>
<polygon fill="none" stroke="black" points="272,-36 0,-36 0,-0 272,-0 272,-36"/>
<text text-anchor="middle" x="136" y="-14.3" font-family="mono" font-size="14.00">algebra.JsonEntitiesFromSchemas</text>
</g>
<!-- json&#45;&gt;algebra -->
<g id="edge1" class="edge"><title>json&#45;&gt;algebra</title>
<path fill="none" stroke="black" d="M169.514,-36.1239C187.841,-45.4883 210.736,-57.1864 230.328,-67.197"/>
<polygon fill="none" stroke="black" points="228.86,-70.377 239.357,-71.8102 232.045,-64.1435 228.86,-70.377"/>
</g>
<!-- auth -->
<g id="node3" class="node"><title>auth</title>
<polygon fill="none" stroke="black" points="529.5,-36 290.5,-36 290.5,-0 529.5,-0 529.5,-36"/>
<text text-anchor="middle" x="410" y="-14.3" font-family="mono" font-size="14.00">algebra.BasicAuthentication</text>
</g>
<!-- auth&#45;&gt;algebra -->
<g id="edge2" class="edge"><title>auth&#45;&gt;algebra</title>
<path fill="none" stroke="black" d="M376.486,-36.1239C358.159,-45.4883 335.264,-57.1864 315.672,-67.197"/>
<polygon fill="none" stroke="black" points="313.955,-64.1435 306.643,-71.8102 317.14,-70.377 313.955,-64.1435"/>
</g>
</g>
</svg>
