<?xml version="1.0" encoding="UTF-8" standalone="no"?>
<!DOCTYPE svg PUBLIC "-//W3C//DTD SVG 1.1//EN"
 "http://www.w3.org/Graphics/SVG/1.1/DTD/svg11.dtd">
<!-- Generated by graphviz version 2.40.1 (20161225.0304)
 -->
<!-- Title: %3 Pages: 1 -->
<svg width="538pt" height="116pt"
 viewBox="0.00 0.00 537.50 116.00" xmlns="http://www.w3.org/2000/svg" xmlns:xlink="http://www.w3.org/1999/xlink">
<g id="graph0" class="graph" transform="scale(1 1) rotate(0) translate(4 112)">
<title>%3</title>
<polygon fill="#ffffff" stroke="transparent" points="-4,4 -4,-112 533.5,-112 533.5,4 -4,4"/>
<!-- algebra -->
<g id="node1" class="node">
<title>algebra</title>
<polygon fill="none" stroke="#000000" points="351.5,-108 194.5,-108 194.5,-72 351.5,-72 351.5,-108"/>
<text text-anchor="middle" x="273" y="-86.3" font-family="mono" font-size="14.00" fill="#000000">algebra.Endpoints</text>
</g>
<!-- json -->
<g id="node2" class="node">
<title>json</title>
<polygon fill="none" stroke="#000000" points="272,-36 0,-36 0,0 272,0 272,-36"/>
<text text-anchor="middle" x="136" y="-14.3" font-family="mono" font-size="14.00" fill="#000000">algebra.JsonEntitiesFromSchemas</text>
</g>
<!-- json&#45;&gt;algebra -->
<g id="edge1" class="edge">
<title>json&#45;&gt;algebra</title>
<path fill="none" stroke="#000000" d="M170.5709,-36.1686C188.4185,-45.5484 210.3774,-57.0888 229.38,-67.0756"/>
<polygon fill="none" stroke="#000000" points="227.9599,-70.2832 238.4402,-71.8372 231.2164,-64.0868 227.9599,-70.2832"/>
</g>
<!-- auth -->
<g id="node3" class="node">
<title>auth</title>
<polygon fill="none" stroke="#000000" points="529.5,-36 290.5,-36 290.5,0 529.5,0 529.5,-36"/>
<text text-anchor="middle" x="410" y="-14.3" font-family="mono" font-size="14.00" fill="#000000">algebra.BasicAuthentication</text>
</g>
<!-- auth&#45;&gt;algebra -->
<g id="edge2" class="edge">
<title>auth&#45;&gt;algebra</title>
<path fill="none" stroke="#000000" d="M375.4291,-36.1686C357.5815,-45.5484 335.6226,-57.0888 316.62,-67.0756"/>
<polygon fill="none" stroke="#000000" points="314.7836,-64.0868 307.5598,-71.8372 318.0401,-70.2832 314.7836,-64.0868"/>
</g>
</g>
</svg>
