<?xml version="1.0" encoding="UTF-8" standalone="no"?>
<!DOCTYPE svg PUBLIC "-//W3C//DTD SVG 1.1//EN"
 "http://www.w3.org/Graphics/SVG/1.1/DTD/svg11.dtd">
<!-- Generated by graphviz version 2.38.0 (20140413.2041)
 -->
<!-- Title: %3 Pages: 1 -->
<svg width="414pt" height="305pt"
 viewBox="0.00 0.00 414.00 305.00" xmlns="http://www.w3.org/2000/svg" xmlns:xlink="http://www.w3.org/1999/xlink">
<g id="graph0" class="graph" transform="scale(1 1) rotate(0) translate(4 301)">
<title>%3</title>
<polygon fill="white" stroke="none" points="-4,4 -4,-301 410,-301 410,4 -4,4"/>
<!-- algebraEndpoints -->
<g id="node1" class="node"><title>algebraEndpoints</title>
<polygon fill="lightGray" stroke="lightGray" points="324.5,-297 167.5,-297 167.5,-261 324.5,-261 324.5,-297"/>
<text text-anchor="middle" x="246" y="-275.3" font-family="mono" font-size="14.00">algebra.Endpoints</text>
</g>
<!-- serverEndpoints -->
<g id="node2" class="node"><title>serverEndpoints</title>
<polygon fill="lightGray" stroke="lightGray" points="389.5,-210 240.5,-210 240.5,-174 389.5,-174 389.5,-210"/>
<text text-anchor="middle" x="315" y="-188.3" font-family="mono" font-size="14.00">server.Endpoints</text>
</g>
<!-- serverEndpoints&#45;&gt;algebraEndpoints -->
<g id="edge1" class="edge"><title>serverEndpoints&#45;&gt;algebraEndpoints</title>
<path fill="none" stroke="black" d="M301.037,-210.201C291.123,-222.413 277.652,-239.008 266.519,-252.722"/>
<polygon fill="none" stroke="black" points="263.528,-250.855 259.942,-260.825 268.962,-255.266 263.528,-250.855"/>
<text text-anchor="middle" x="323.5" y="-231.8" font-family="Times,serif" font-size="14.00">implement</text>
</g>
<!-- Authentication -->
<g id="node3" class="node"><title>Authentication</title>
<polygon fill="none" stroke="black" points="222,-210 90,-210 90,-174 222,-174 222,-210"/>
<text text-anchor="middle" x="156" y="-188.3" font-family="mono" font-size="14.00">Authentication</text>
</g>
<!-- Authentication&#45;&gt;algebraEndpoints -->
<g id="edge2" class="edge"><title>Authentication&#45;&gt;algebraEndpoints</title>
<path fill="none" stroke="black" d="M174.213,-210.201C187.51,-222.759 205.712,-239.951 220.461,-253.88"/>
<polygon fill="black" stroke="black" points="218.141,-256.503 227.814,-260.825 222.947,-251.414 218.141,-256.503"/>
<text text-anchor="middle" x="230" y="-231.8" font-family="Times,serif" font-size="14.00">enrich</text>
</g>
<!-- AuthenticationEndpoints -->
<g id="node4" class="node"><title>AuthenticationEndpoints</title>
<polygon fill="none" stroke="black" points="206,-123 0,-123 0,-87 206,-87 206,-123"/>
<text text-anchor="middle" x="103" y="-101.3" font-family="mono" font-size="14.00">AuthenticationEndpoints</text>
</g>
<!-- AuthenticationEndpoints&#45;&gt;Authentication -->
<g id="edge3" class="edge"><title>AuthenticationEndpoints&#45;&gt;Authentication</title>
<path fill="none" stroke="black" d="M113.725,-123.201C121.268,-135.298 131.492,-151.695 139.996,-165.333"/>
<polygon fill="black" stroke="black" points="137.03,-167.191 145.291,-173.825 142.97,-163.487 137.03,-167.191"/>
<text text-anchor="middle" x="145.5" y="-144.8" font-family="Times,serif" font-size="14.00">use</text>
</g>
<!-- ServerAuthentication -->
<g id="node5" class="node"><title>ServerAuthentication</title>
<polygon fill="none" stroke="black" points="406,-123 224,-123 224,-87 406,-87 406,-123"/>
<text text-anchor="middle" x="315" y="-101.3" font-family="mono" font-size="14.00">ServerAuthentication</text>
</g>
<!-- ServerAuthentication&#45;&gt;serverEndpoints -->
<g id="edge5" class="edge"><title>ServerAuthentication&#45;&gt;serverEndpoints</title>
<path fill="none" stroke="black" d="M315,-123.201C315,-134.837 315,-150.452 315,-163.763"/>
<polygon fill="black" stroke="black" points="311.5,-163.825 315,-173.825 318.5,-163.825 311.5,-163.825"/>
<text text-anchor="middle" x="335" y="-144.8" font-family="Times,serif" font-size="14.00">apply</text>
</g>
<!-- ServerAuthentication&#45;&gt;Authentication -->
<g id="edge4" class="edge"><title>ServerAuthentication&#45;&gt;Authentication</title>
<path fill="none" stroke="black" d="M271.929,-123.075C259.494,-128.415 246.036,-134.596 234,-141 218.74,-149.119 202.548,-159.232 188.894,-168.234"/>
<polygon fill="none" stroke="black" points="186.696,-165.494 180.324,-173.958 190.584,-171.315 186.696,-165.494"/>
<text text-anchor="middle" x="272.5" y="-144.8" font-family="Times,serif" font-size="14.00">implement</text>
</g>
<!-- Server -->
<g id="node6" class="node"><title>Server</title>
<polygon fill="none" stroke="black" points="242,-36 176,-36 176,-0 242,-0 242,-36"/>
<text text-anchor="middle" x="209" y="-14.3" font-family="mono" font-size="14.00">Server</text>
</g>
<!-- Server&#45;&gt;AuthenticationEndpoints -->
<g id="edge6" class="edge"><title>Server&#45;&gt;AuthenticationEndpoints</title>
<path fill="none" stroke="black" d="M187.549,-36.201C171.745,-48.8743 150.056,-66.2665 132.602,-80.2623"/>
<polygon fill="black" stroke="black" points="130.031,-77.8381 124.419,-86.8246 134.41,-83.2991 130.031,-77.8381"/>
<text text-anchor="middle" x="175.5" y="-57.8" font-family="Times,serif" font-size="14.00">use</text>
</g>
<!-- Server&#45;&gt;ServerAuthentication -->
<g id="edge7" class="edge"><title>Server&#45;&gt;ServerAuthentication</title>
<path fill="none" stroke="black" d="M230.451,-36.201C246.255,-48.8743 267.944,-66.2665 285.398,-80.2623"/>
<polygon fill="black" stroke="black" points="283.59,-83.2991 293.581,-86.8246 287.969,-77.8381 283.59,-83.2991"/>
<text text-anchor="middle" x="289" y="-57.8" font-family="Times,serif" font-size="14.00">apply</text>
</g>
</g>
</svg>
