<?xml version="1.0" encoding="UTF-8" standalone="no"?>
<!DOCTYPE svg PUBLIC "-//W3C//DTD SVG 1.1//EN"
 "http://www.w3.org/Graphics/SVG/1.1/DTD/svg11.dtd">
<!-- Generated by graphviz version 2.40.1 (20161225.0304)
 -->
<!-- Title: %3 Pages: 1 -->
<svg width="414pt" height="305pt"
 viewBox="0.00 0.00 414.00 305.00" xmlns="http://www.w3.org/2000/svg" xmlns:xlink="http://www.w3.org/1999/xlink">
<g id="graph0" class="graph" transform="scale(1 1) rotate(0) translate(4 301)">
<title>%3</title>
<polygon fill="#ffffff" stroke="transparent" points="-4,4 -4,-301 410,-301 410,4 -4,4"/>
<!-- algebraEndpoints -->
<g id="node1" class="node">
<title>algebraEndpoints</title>
<polygon fill="#d3d3d3" stroke="#d3d3d3" points="313.5,-297 156.5,-297 156.5,-261 313.5,-261 313.5,-297"/>
<text text-anchor="middle" x="235" y="-275.3" font-family="mono" font-size="14.00" fill="#000000">algebra.Endpoints</text>
</g>
<!-- serverEndpoints -->
<g id="node2" class="node">
<title>serverEndpoints</title>
<polygon fill="#d3d3d3" stroke="#d3d3d3" points="389.5,-210 240.5,-210 240.5,-174 389.5,-174 389.5,-210"/>
<text text-anchor="middle" x="315" y="-188.3" font-family="mono" font-size="14.00" fill="#000000">server.Endpoints</text>
</g>
<!-- serverEndpoints&#45;&gt;algebraEndpoints -->
<g id="edge1" class="edge">
<title>serverEndpoints&#45;&gt;algebraEndpoints</title>
<path fill="none" stroke="#000000" d="M298.4239,-210.0265C286.8393,-222.6248 271.2073,-239.6245 258.3614,-253.5945"/>
<polygon fill="none" stroke="#000000" points="255.7472,-251.2665 251.5548,-260.9966 260.8999,-256.0047 255.7472,-251.2665"/>
<text text-anchor="middle" x="309" y="-231.8" font-family="Times,serif" font-size="14.00" fill="#000000">implement</text>
</g>
<!-- Authentication -->
<g id="node3" class="node">
<title>Authentication</title>
<polygon fill="none" stroke="#000000" points="222,-210 90,-210 90,-174 222,-174 222,-210"/>
<text text-anchor="middle" x="156" y="-188.3" font-family="mono" font-size="14.00" fill="#000000">Authentication</text>
</g>
<!-- Authentication&#45;&gt;algebraEndpoints -->
<g id="edge2" class="edge">
<title>Authentication&#45;&gt;algebraEndpoints</title>
<path fill="none" stroke="#000000" d="M172.3689,-210.0265C183.7028,-222.5081 198.9597,-239.3101 211.5775,-253.2056"/>
<polygon fill="#000000" stroke="#000000" points="209.3385,-255.9462 218.6521,-260.9966 214.5207,-251.2405 209.3385,-255.9462"/>
<text text-anchor="middle" x="218" y="-231.8" font-family="Times,serif" font-size="14.00" fill="#000000">enrich</text>
</g>
<!-- AuthenticationEndpoints -->
<g id="node4" class="node">
<title>AuthenticationEndpoints</title>
<polygon fill="none" stroke="#000000" points="206,-123 0,-123 0,-87 206,-87 206,-123"/>
<text text-anchor="middle" x="103" y="-101.3" font-family="mono" font-size="14.00" fill="#000000">AuthenticationEndpoints</text>
</g>
<!-- AuthenticationEndpoints&#45;&gt;Authentication -->
<g id="edge3" class="edge">
<title>AuthenticationEndpoints&#45;&gt;Authentication</title>
<path fill="none" stroke="#000000" d="M113.9816,-123.0265C121.4433,-135.2748 131.4394,-151.6835 139.8097,-165.4234"/>
<polygon fill="#000000" stroke="#000000" points="136.8408,-167.2775 145.0324,-173.9966 142.8188,-163.6356 136.8408,-167.2775"/>
<text text-anchor="middle" x="142.5" y="-144.8" font-family="Times,serif" font-size="14.00" fill="#000000">use</text>
</g>
<!-- ServerAuthentication -->
<g id="node5" class="node">
<title>ServerAuthentication</title>
<polygon fill="none" stroke="#000000" points="406,-123 224,-123 224,-87 406,-87 406,-123"/>
<text text-anchor="middle" x="315" y="-101.3" font-family="mono" font-size="14.00" fill="#000000">ServerAuthentication</text>
</g>
<!-- ServerAuthentication&#45;&gt;serverEndpoints -->
<g id="edge5" class="edge">
<title>ServerAuthentication&#45;&gt;serverEndpoints</title>
<path fill="none" stroke="#000000" d="M315,-123.0265C315,-134.8082 315,-150.4393 315,-163.8419"/>
<polygon fill="#000000" stroke="#000000" points="311.5001,-163.9966 315,-173.9966 318.5001,-163.9967 311.5001,-163.9966"/>
<text text-anchor="middle" x="330.5" y="-144.8" font-family="Times,serif" font-size="14.00" fill="#000000">apply</text>
</g>
<!-- ServerAuthentication&#45;&gt;Authentication -->
<g id="edge4" class="edge">
<title>ServerAuthentication&#45;&gt;Authentication</title>
<path fill="none" stroke="#000000" d="M282.0551,-123.0265C257.6448,-136.383 224.1932,-154.6867 197.8841,-169.0823"/>
<polygon fill="none" stroke="#000000" points="195.9953,-166.1261 188.9027,-173.9966 199.3554,-172.2669 195.9953,-166.1261"/>
<text text-anchor="middle" x="275" y="-144.8" font-family="Times,serif" font-size="14.00" fill="#000000">implement</text>
</g>
<!-- Server -->
<g id="node6" class="node">
<title>Server</title>
<polygon fill="none" stroke="#000000" points="242,-36 176,-36 176,0 242,0 242,-36"/>
<text text-anchor="middle" x="209" y="-14.3" font-family="mono" font-size="14.00" fill="#000000">Server</text>
</g>
<!-- Server&#45;&gt;AuthenticationEndpoints -->
<g id="edge6" class="edge">
<title>Server&#45;&gt;AuthenticationEndpoints</title>
<path fill="none" stroke="#000000" d="M187.0367,-36.0265C171.4028,-48.8581 150.2058,-66.2557 133.0121,-80.3674"/>
<polygon fill="#000000" stroke="#000000" points="130.4445,-77.9469 124.9351,-86.9966 134.8855,-83.3578 130.4445,-77.9469"/>
<text text-anchor="middle" x="172.5" y="-57.8" font-family="Times,serif" font-size="14.00" fill="#000000">use</text>
</g>
<!-- Server&#45;&gt;ServerAuthentication -->
<g id="edge7" class="edge">
<title>Server&#45;&gt;ServerAuthentication</title>
<path fill="none" stroke="#000000" d="M230.9633,-36.0265C246.5972,-48.8581 267.7942,-66.2557 284.9879,-80.3674"/>
<polygon fill="#000000" stroke="#000000" points="283.1145,-83.3578 293.0649,-86.9966 287.5555,-77.9469 283.1145,-83.3578"/>
<text text-anchor="middle" x="283.5" y="-57.8" font-family="Times,serif" font-size="14.00" fill="#000000">apply</text>
</g>
</g>
</svg>
