<?xml version="1.0" encoding="UTF-8" standalone="no"?>
<!DOCTYPE svg PUBLIC "-//W3C//DTD SVG 1.1//EN"
 "http://www.w3.org/Graphics/SVG/1.1/DTD/svg11.dtd">
<!-- Generated by graphviz version 2.40.1 (20161225.0304)
 -->
<!-- Title: %3 Pages: 1 -->
<svg width="776pt" height="218pt"
 viewBox="0.00 0.00 776.07 218.00" xmlns="http://www.w3.org/2000/svg" xmlns:xlink="http://www.w3.org/1999/xlink">
<g id="graph0" class="graph" transform="scale(1 1) rotate(0) translate(4 214)">
<title>%3</title>
<polygon fill="#ffffff" stroke="transparent" points="-4,4 -4,-214 772.0705,-214 772.0705,4 -4,4"/>
<!-- doc -->
<g id="node1" class="node">
<title>doc</title>
<polygon fill="none" stroke="#000000" points="468.0705,-210 265.6411,-192 468.0705,-174 670.5,-192 468.0705,-210"/>
<text text-anchor="middle" x="468.0705" y="-188.3" font-family="Times,serif" font-size="14.00" fill="#000000">Do I want to publish documentation?</text>
</g>
<!-- codec -->
<g id="node2" class="node">
<title>codec</title>
<polygon fill="none" stroke="#000000" points="272.0705,-123 -.0706,-105 272.0705,-87 544.2117,-105 272.0705,-123"/>
<text text-anchor="middle" x="272.0705" y="-101.3" font-family="Times,serif" font-size="14.00" fill="#000000">Do I want to implement both a client and a server?</text>
</g>
<!-- doc&#45;&gt;codec -->
<g id="edge2" class="edge">
<title>doc&#45;&gt;codec</title>
<path fill="none" stroke="#000000" d="M433.93,-176.8458C401.4099,-162.4108 352.2728,-140.6 316.671,-124.7971"/>
<polygon fill="#000000" stroke="#000000" points="318.0325,-121.5722 307.4724,-120.7141 315.1925,-127.9702 318.0325,-121.5722"/>
<text text-anchor="middle" x="389.0705" y="-144.8" font-family="Times,serif" font-size="14.00" fill="#000000">no</text>
</g>
<!-- JsonEntitiesFromSchemas -->
<g id="node3" class="node">
<title>JsonEntitiesFromSchemas</title>
<polygon fill="none" stroke="#000000" points="768.0705,-123 562.0705,-123 562.0705,-87 768.0705,-87 768.0705,-123"/>
<text text-anchor="middle" x="665.0705" y="-101.3" font-family="mono" font-size="14.00" fill="#000000">JsonEntitiesFromSchemas</text>
</g>
<!-- doc&#45;&gt;JsonEntitiesFromSchemas -->
<g id="edge1" class="edge">
<title>doc&#45;&gt;JsonEntitiesFromSchemas</title>
<path fill="none" stroke="#000000" d="M502.3853,-176.8458C533.4522,-163.1259 579.6072,-142.7427 614.8284,-127.1881"/>
<polygon fill="#000000" stroke="#000000" points="616.2565,-130.3836 623.9902,-123.1421 613.4286,-123.9803 616.2565,-130.3836"/>
<text text-anchor="middle" x="588.5705" y="-144.8" font-family="Times,serif" font-size="14.00" fill="#000000">yes</text>
</g>
<!-- JsonEntitiesFromCodecs -->
<g id="node4" class="node">
<title>JsonEntitiesFromCodecs</title>
<polygon fill="none" stroke="#000000" points="236.0705,-36 38.0705,-36 38.0705,0 236.0705,0 236.0705,-36"/>
<text text-anchor="middle" x="137.0705" y="-14.3" font-family="mono" font-size="14.00" fill="#000000">JsonEntitiesFromCodecs</text>
</g>
<!-- codec&#45;&gt;JsonEntitiesFromCodecs -->
<g id="edge3" class="edge">
<title>codec&#45;&gt;JsonEntitiesFromCodecs</title>
<path fill="none" stroke="#000000" d="M246.6781,-88.636C226.0891,-75.3675 196.7976,-56.4908 173.6743,-41.5891"/>
<polygon fill="#000000" stroke="#000000" points="175.4468,-38.5675 165.1451,-36.0925 171.6549,-44.4516 175.4468,-38.5675"/>
<text text-anchor="middle" x="222.5705" y="-57.8" font-family="Times,serif" font-size="14.00" fill="#000000">yes</text>
</g>
<!-- JsonEntitiesFromEncodersAndDecoders -->
<g id="node5" class="node">
<title>JsonEntitiesFromEncodersAndDecoders</title>
<polygon fill="none" stroke="#000000" points="559.5705,-36 254.5705,-36 254.5705,0 559.5705,0 559.5705,-36"/>
<text text-anchor="middle" x="407.0705" y="-14.3" font-family="mono" font-size="14.00" fill="#000000">JsonEntitiesFromEncodersAndDecoders</text>
</g>
<!-- codec&#45;&gt;JsonEntitiesFromEncodersAndDecoders -->
<g id="edge4" class="edge">
<title>codec&#45;&gt;JsonEntitiesFromEncodersAndDecoders</title>
<path fill="none" stroke="#000000" d="M297.463,-88.636C318.052,-75.3675 347.3435,-56.4908 370.4668,-41.5891"/>
<polygon fill="#000000" stroke="#000000" points="372.4862,-44.4516 378.996,-36.0925 368.6943,-38.5675 372.4862,-44.4516"/>
<text text-anchor="middle" x="355.0705" y="-57.8" font-family="Times,serif" font-size="14.00" fill="#000000">no</text>
</g>
</g>
</svg>
