<?xml version="1.0" encoding="UTF-8" standalone="no"?>
<!DOCTYPE svg PUBLIC "-//W3C//DTD SVG 1.1//EN"
 "http://www.w3.org/Graphics/SVG/1.1/DTD/svg11.dtd">
<!-- Generated by graphviz version 2.38.0 (20140413.2041)
 -->
<!-- Title: %3 Pages: 1 -->
<svg width="971pt" height="218pt"
 viewBox="0.00 0.00 971.40 218.00" xmlns="http://www.w3.org/2000/svg" xmlns:xlink="http://www.w3.org/1999/xlink">
<g id="graph0" class="graph" transform="scale(1 1) rotate(0) translate(4 214)">
<title>%3</title>
<polygon fill="white" stroke="none" points="-4,4 -4,-214 967.401,-214 967.401,4 -4,4"/>
<!-- doc -->
<g id="node1" class="node"><title>doc</title>
<polygon fill="none" stroke="black" points="705.118,-210 447.052,-192 705.118,-174 963.185,-192 705.118,-210"/>
<text text-anchor="middle" x="705.118" y="-188.3" font-family="Times,serif" font-size="14.00">Do I want to publish documentation?</text>
</g>
<!-- codec -->
<g id="node2" class="node"><title>codec</title>
<polygon fill="none" stroke="black" points="351.118,-123 -0.118112,-105 351.118,-87 702.354,-105 351.118,-123"/>
<text text-anchor="middle" x="351.118" y="-101.3" font-family="Times,serif" font-size="14.00">Do I want to implement both a client and a server?</text>
</g>
<!-- doc&#45;&gt;codec -->
<g id="edge2" class="edge"><title>doc&#45;&gt;codec</title>
<path fill="none" stroke="black" d="M650.194,-177.812C588.128,-162.909 487.016,-138.631 419.786,-122.488"/>
<polygon fill="black" stroke="black" points="420.251,-119 409.71,-120.069 418.617,-125.807 420.251,-119"/>
<text text-anchor="middle" x="559.118" y="-144.8" font-family="Times,serif" font-size="14.00">no</text>
</g>
<!-- JsonEntitiesFromSchemas -->
<g id="node3" class="node"><title>JsonEntitiesFromSchemas</title>
<polygon fill="none" stroke="black" points="926.118,-123 720.118,-123 720.118,-87 926.118,-87 926.118,-123"/>
<text text-anchor="middle" x="823.118" y="-101.3" font-family="mono" font-size="14.00">JsonEntitiesFromSchemas</text>
</g>
<!-- doc&#45;&gt;JsonEntitiesFromSchemas -->
<g id="edge1" class="edge"><title>doc&#45;&gt;JsonEntitiesFromSchemas</title>
<path fill="none" stroke="black" d="M726.761,-175.41C744.692,-162.493 770.443,-143.944 790.814,-129.27"/>
<polygon fill="black" stroke="black" points="793.108,-131.931 799.177,-123.246 789.017,-126.251 793.108,-131.931"/>
<text text-anchor="middle" x="784.618" y="-144.8" font-family="Times,serif" font-size="14.00">yes</text>
</g>
<!-- JsonEntitiesFromCodecs -->
<g id="node4" class="node"><title>JsonEntitiesFromCodecs</title>
<polygon fill="none" stroke="black" points="315.118,-36 117.118,-36 117.118,-0 315.118,-0 315.118,-36"/>
<text text-anchor="middle" x="216.118" y="-14.3" font-family="mono" font-size="14.00">JsonEntitiesFromCodecs</text>
</g>
<!-- codec&#45;&gt;JsonEntitiesFromCodecs -->
<g id="edge3" class="edge"><title>codec&#45;&gt;JsonEntitiesFromCodecs</title>
<path fill="none" stroke="black" d="M326.042,-88.2114C305.217,-75.0992 275.332,-56.2826 251.977,-41.5781"/>
<polygon fill="black" stroke="black" points="253.706,-38.5306 243.379,-36.1642 249.976,-44.4542 253.706,-38.5306"/>
<text text-anchor="middle" x="304.618" y="-57.8" font-family="Times,serif" font-size="14.00">yes</text>
</g>
<!-- JsonEntitiesFromEncodersAndDecoders -->
<g id="node5" class="node"><title>JsonEntitiesFromEncodersAndDecoders</title>
<polygon fill="none" stroke="black" points="638.618,-36 333.618,-36 333.618,-0 638.618,-0 638.618,-36"/>
<text text-anchor="middle" x="486.118" y="-14.3" font-family="mono" font-size="14.00">JsonEntitiesFromEncodersAndDecoders</text>
</g>
<!-- codec&#45;&gt;JsonEntitiesFromEncodersAndDecoders -->
<g id="edge4" class="edge"><title>codec&#45;&gt;JsonEntitiesFromEncodersAndDecoders</title>
<path fill="none" stroke="black" d="M376.194,-88.2114C397.019,-75.0992 426.904,-56.2826 450.259,-41.5781"/>
<polygon fill="black" stroke="black" points="452.26,-44.4542 458.857,-36.1642 448.53,-38.5306 452.26,-44.4542"/>
<text text-anchor="middle" x="436.118" y="-57.8" font-family="Times,serif" font-size="14.00">no</text>
</g>
</g>
</svg>
