<?xml version="1.0" encoding="UTF-8" standalone="no"?>
<!DOCTYPE svg PUBLIC "-//W3C//DTD SVG 1.1//EN"
 "http://www.w3.org/Graphics/SVG/1.1/DTD/svg11.dtd">
<!-- Generated by graphviz version 2.40.1 (20161225.0304)
 -->
<!-- Title: %3 Pages: 1 -->
<svg width="615pt" height="116pt"
 viewBox="0.00 0.00 614.50 116.00" xmlns="http://www.w3.org/2000/svg" xmlns:xlink="http://www.w3.org/1999/xlink">
<g id="graph0" class="graph" transform="scale(1 1) rotate(0) translate(4 112)">
<title>%3</title>
<polygon fill="#ffffff" stroke="transparent" points="-4,4 -4,-112 610.5,-112 610.5,4 -4,4"/>
<!-- algebra -->
<g id="node1" class="node">
<title>algebra</title>
<polygon fill="none" stroke="#000000" points="398.5,-108 241.5,-108 241.5,-72 398.5,-72 398.5,-108"/>
<text text-anchor="middle" x="320" y="-86.3" font-family="mono" font-size="14.00" fill="#000000">algebra.Endpoints</text>
</g>
<!-- playServer -->
<g id="node2" class="node">
<title>playServer</title>
<polygon fill="none" stroke="#000000" points="190,-36 0,-36 0,0 190,0 190,-36"/>
<text text-anchor="middle" x="95" y="-14.3" font-family="mono" font-size="14.00" fill="#000000">play.server.Endpoints</text>
</g>
<!-- playServer&#45;&gt;algebra -->
<g id="edge1" class="edge">
<title>playServer&#45;&gt;algebra</title>
<path fill="none" stroke="#000000" d="M151.4866,-36.0757C182.5129,-46.0041 221.1703,-58.3745 253.6306,-68.7618"/>
<polygon fill="none" stroke="#000000" points="252.8992,-72.2025 263.4902,-71.9169 255.0327,-65.5355 252.8992,-72.2025"/>
</g>
<!-- akkaClient -->
<g id="node3" class="node">
<title>akkaClient</title>
<polygon fill="none" stroke="#000000" points="431.5,-36 208.5,-36 208.5,0 431.5,0 431.5,-36"/>
<text text-anchor="middle" x="320" y="-14.3" font-family="mono" font-size="14.00" fill="#000000">akkahttp.client.Endpoints</text>
</g>
<!-- akkaClient&#45;&gt;algebra -->
<g id="edge2" class="edge">
<title>akkaClient&#45;&gt;algebra</title>
<path fill="none" stroke="#000000" d="M320,-36.1686C320,-43.869 320,-53.0257 320,-61.5834"/>
<polygon fill="none" stroke="#000000" points="316.5001,-61.5867 320,-71.5867 323.5001,-61.5868 316.5001,-61.5867"/>
</g>
<!-- openapi -->
<g id="node4" class="node">
<title>openapi</title>
<polygon fill="none" stroke="#000000" points="606.5,-36 449.5,-36 449.5,0 606.5,0 606.5,-36"/>
<text text-anchor="middle" x="528" y="-14.3" font-family="mono" font-size="14.00" fill="#000000">openapi.Endpoints</text>
</g>
<!-- openapi&#45;&gt;algebra -->
<g id="edge3" class="edge">
<title>openapi&#45;&gt;algebra</title>
<path fill="none" stroke="#000000" d="M475.7813,-36.0757C447.2229,-45.9613 411.6705,-58.2679 381.7432,-68.6274"/>
<polygon fill="none" stroke="#000000" points="380.5451,-65.3382 372.2402,-71.9169 382.835,-71.9531 380.5451,-65.3382"/>
</g>
</g>
</svg>
