<?xml version="1.0" encoding="UTF-8" standalone="no"?>
<!DOCTYPE svg PUBLIC "-//W3C//DTD SVG 1.1//EN"
 "http://www.w3.org/Graphics/SVG/1.1/DTD/svg11.dtd">
<!-- Generated by graphviz version 2.38.0 (20140413.2041)
 -->
<!-- Title: %3 Pages: 1 -->
<svg width="615pt" height="116pt"
 viewBox="0.00 0.00 614.50 116.00" xmlns="http://www.w3.org/2000/svg" xmlns:xlink="http://www.w3.org/1999/xlink">
<g id="graph0" class="graph" transform="scale(1 1) rotate(0) translate(4 112)">
<title>%3</title>
<polygon fill="white" stroke="none" points="-4,4 -4,-112 610.5,-112 610.5,4 -4,4"/>
<!-- algebra -->
<g id="node1" class="node"><title>algebra</title>
<polygon fill="none" stroke="black" points="398.5,-108 241.5,-108 241.5,-72 398.5,-72 398.5,-108"/>
<text text-anchor="middle" x="320" y="-86.3" font-family="mono" font-size="14.00">algebra.Endpoints</text>
</g>
<!-- playServer -->
<g id="node2" class="node"><title>playServer</title>
<polygon fill="none" stroke="black" points="190,-36 0,-36 0,-0 190,-0 190,-36"/>
<text text-anchor="middle" x="95" y="-14.3" font-family="mono" font-size="14.00">play.server.Endpoints</text>
</g>
<!-- playServer&#45;&gt;algebra -->
<g id="edge1" class="edge"><title>playServer&#45;&gt;algebra</title>
<path fill="none" stroke="black" d="M149.753,-36.0344C181.601,-45.9426 221.92,-58.4861 255.325,-68.879"/>
<polygon fill="none" stroke="black" points="254.413,-72.2605 265.001,-71.8892 256.492,-65.5765 254.413,-72.2605"/>
</g>
<!-- akkaClient -->
<g id="node3" class="node"><title>akkaClient</title>
<polygon fill="none" stroke="black" points="431.5,-36 208.5,-36 208.5,-0 431.5,-0 431.5,-36"/>
<text text-anchor="middle" x="320" y="-14.3" font-family="mono" font-size="14.00">akkahttp.client.Endpoints</text>
</g>
<!-- akkaClient&#45;&gt;algebra -->
<g id="edge2" class="edge"><title>akkaClient&#45;&gt;algebra</title>
<path fill="none" stroke="black" d="M320,-36.3034C320,-44.0173 320,-53.2875 320,-61.8876"/>
<polygon fill="none" stroke="black" points="316.5,-61.8956 320,-71.8957 323.5,-61.8957 316.5,-61.8956"/>
</g>
<!-- openapi -->
<g id="node4" class="node"><title>openapi</title>
<polygon fill="none" stroke="black" points="606.5,-36 449.5,-36 449.5,-0 606.5,-0 606.5,-36"/>
<text text-anchor="middle" x="528" y="-14.3" font-family="mono" font-size="14.00">openapi.Endpoints</text>
</g>
<!-- openapi&#45;&gt;algebra -->
<g id="edge3" class="edge"><title>openapi&#45;&gt;algebra</title>
<path fill="none" stroke="black" d="M477.383,-36.0344C448.195,-45.8575 411.309,-58.2709 380.585,-68.6109"/>
<polygon fill="none" stroke="black" points="379.205,-65.3823 370.844,-71.8892 381.438,-72.0167 379.205,-65.3823"/>
</g>
</g>
</svg>
