<?xml version="1.0" encoding="UTF-8" standalone="no"?>
<!DOCTYPE svg PUBLIC "-//W3C//DTD SVG 1.1//EN"
 "http://www.w3.org/Graphics/SVG/1.1/DTD/svg11.dtd">
<!-- Generated by graphviz version 2.40.1 (20161225.0304)
 -->
<!-- Title: %3 Pages: 1 -->
<svg width="158pt" height="116pt"
 viewBox="0.00 0.00 158.00 116.00" xmlns="http://www.w3.org/2000/svg" xmlns:xlink="http://www.w3.org/1999/xlink">
<g id="graph0" class="graph" transform="scale(1 1) rotate(0) translate(4 112)">
<title>%3</title>
<polygon fill="#ffffff" stroke="transparent" points="-4,4 -4,-112 154,-112 154,4 -4,4"/>
<!-- server -->
<g id="node1" class="node">
<title>server</title>
<polygon fill="none" stroke="#000000" points="66,-36 0,-36 0,0 66,0 66,-36"/>
<text text-anchor="middle" x="33" y="-14.3" font-family="mono" font-size="14.00" fill="#000000">server</text>
</g>
<!-- shared -->
<g id="node2" class="node">
<title>shared</title>
<polygon fill="none" stroke="#000000" points="108,-108 42,-108 42,-72 108,-72 108,-108"/>
<text text-anchor="middle" x="75" y="-86.3" font-family="mono" font-size="14.00" fill="#000000">shared</text>
</g>
<!-- server&#45;&gt;shared -->
<g id="edge1" class="edge">
<title>server&#45;&gt;shared</title>
<path fill="none" stroke="#000000" stroke-dasharray="5,2" d="M43.5984,-36.1686C48.2877,-44.2075 53.9028,-53.8334 59.0798,-62.7082"/>
<polygon fill="#000000" stroke="#000000" points="56.1969,-64.7125 64.2589,-71.5867 62.2434,-61.1854 56.1969,-64.7125"/>
</g>
<!-- client -->
<g id="node3" class="node">
<title>client</title>
<polygon fill="none" stroke="#000000" points="150,-36 84,-36 84,0 150,0 150,-36"/>
<text text-anchor="middle" x="117" y="-14.3" font-family="mono" font-size="14.00" fill="#000000">client</text>
</g>
<!-- client&#45;&gt;shared -->
<g id="edge2" class="edge">
<title>client&#45;&gt;shared</title>
<path fill="none" stroke="#000000" stroke-dasharray="5,2" d="M106.4016,-36.1686C101.7123,-44.2075 96.0972,-53.8334 90.9202,-62.7082"/>
<polygon fill="#000000" stroke="#000000" points="87.7566,-61.1854 85.7411,-71.5867 93.8031,-64.7125 87.7566,-61.1854"/>
</g>
</g>
</svg>
